<svg width="11" height="10" viewBox="0 0 11 10" fill="none" xmlns="http://www.w3.org/2000/svg">
<path id="twi_red copy" fill-rule="evenodd" clip-rule="evenodd" d="M0 8.86563C0.9988 9.5825 2.1846 10 3.4595 10C7.6109 10 9.88075 6.1525 9.88075 2.81625C9.88075 2.70687 9.87855 2.59875 9.87415 2.49063C10.3152 2.13438 10.698 1.69 11 1.18375C10.5957 1.385 10.1607 1.52 9.7042 1.58C10.1701 1.26937 10.527 0.773125 10.6964 0.184375C10.2602 0.473125 9.7768 0.683125 9.2631 0.79625C8.8517 0.30625 8.26485 0 7.61585 0C6.36955 0 5.35865 1.12937 5.35865 2.52313C5.35865 2.72188 5.379 2.91375 5.4175 3.09875C3.542 2.99375 1.87825 1.98875 0.76615 0.46125C0.572 0.835 0.46035 1.2675 0.46035 1.73063C0.46035 2.60625 0.85855 3.37937 1.4641 3.83187C1.09395 3.82 0.74635 3.70563 0.44165 3.51625C0.44165 3.52688 0.44165 3.5375 0.44165 3.54813C0.44165 4.77063 1.22045 5.79188 2.2517 6.02375C2.06305 6.08188 1.8634 6.11188 1.6577 6.11188C1.51195 6.11188 1.3706 6.09688 1.2331 6.06687C1.51965 7.07062 2.35345 7.80062 3.3407 7.82C2.5685 8.4975 1.59665 8.9 0.53845 8.9C0.3564 8.9 0.1771 8.89 0 8.86563Z" fill="black"/>
</svg>
