<svg width="152" height="32" viewBox="0 0 152 32" fill="none" xmlns="http://www.w3.org/2000/svg">
<path d="M0.5 24.0174V8.92375H4.78075V10.6318C5.95035 9.16776 7.45914 8.43573 9.30711 8.43573C11.5761 8.43573 13.1785 9.35367 14.1142 11.1895C15.2604 9.35367 16.8861 8.43573 18.9914 8.43573C20.7692 8.43573 22.1377 9.05156 23.0967 10.2832C23.5412 10.8642 23.8219 11.4684 23.9388 12.0959C24.0792 12.7233 24.1494 13.5367 24.1494 14.5359V24.0174H19.8686V15.7908C19.8686 14.3733 19.6347 13.3856 19.1669 12.8279C18.7458 12.3166 18.161 12.061 17.4125 12.061C16.3364 12.061 15.5528 12.5025 15.0616 13.3856C14.6639 14.0363 14.4651 15.0123 14.4651 16.3137V24.0174H10.1843V15.7908C10.1843 14.3733 9.9504 13.3856 9.48255 12.8279C9.0615 12.3166 8.47669 12.061 7.72815 12.061C6.65211 12.061 5.86848 12.5025 5.37725 13.3856C4.97958 14.0363 4.78075 15.0123 4.78075 16.3137V24.0174H0.5Z" fill="#1B1B1B"/>
<path d="M41.9755 10.8758V8.92375H46.2563V24.0174H41.9755V22.0654C40.8293 23.6921 39.2737 24.5054 37.3088 24.5054C35.0164 24.5054 33.145 23.7269 31.6947 22.1699C30.2678 20.6129 29.5543 18.7073 29.5543 16.4532C29.5543 14.1757 30.2561 12.2702 31.6596 10.7364C33.0631 9.20261 34.876 8.43573 37.0983 8.43573C39.2971 8.43573 40.9229 9.24909 41.9755 10.8758ZM41.2036 13.4205C40.4082 12.6071 39.4024 12.2004 38.186 12.2004C36.9696 12.2004 35.9637 12.6071 35.1684 13.4205C34.3731 14.2338 33.9754 15.2447 33.9754 16.4532C33.9754 17.6616 34.3731 18.6841 35.1684 19.5207C35.9637 20.3341 36.9696 20.7407 38.186 20.7407C39.4024 20.7407 40.4082 20.3341 41.2036 19.5207C41.9989 18.6841 42.3966 17.6616 42.3966 16.4532C42.3966 15.2447 41.9989 14.2338 41.2036 13.4205Z" fill="#1B1B1B"/>
<path d="M52.4427 8.92375H56.7235V32H52.4427V8.92375ZM52.7585 4.3573C52.2673 3.84604 52.0217 3.24183 52.0217 2.54466C52.0217 1.84749 52.2673 1.2549 52.7585 0.766883C53.2731 0.255628 53.8813 0 54.5831 0C55.2849 0 55.8814 0.255628 56.3726 0.766883C56.8872 1.2549 57.1445 1.84749 57.1445 2.54466C57.1445 3.24183 56.8872 3.84604 56.3726 4.3573C55.8814 4.84531 55.2849 5.08932 54.5831 5.08932C53.8813 5.08932 53.2731 4.84531 52.7585 4.3573Z" fill="#1B1B1B"/>
<path d="M73.2949 10.0392L71.1896 12.5142C70.4645 11.8402 69.6341 11.5033 68.6984 11.5033C68.1838 11.5033 67.7744 11.6195 67.4703 11.8519C67.1896 12.061 67.0492 12.3515 67.0492 12.7233C67.0492 13.3275 67.5054 13.7807 68.4177 14.0828L69.4352 14.3965C71.4236 15.024 72.7101 15.7444 73.2949 16.5577C73.8095 17.2549 74.0669 18.0915 74.0669 19.0675C74.0669 20.6013 73.5054 21.8794 72.3826 22.902C71.213 23.971 69.6926 24.5054 67.8212 24.5054C65.4586 24.5054 63.4936 23.6688 61.9264 21.9956L64.172 19.4161C65.1779 20.5781 66.3007 21.159 67.5405 21.159C68.1487 21.159 68.6516 21.0196 69.0493 20.7407C69.4469 20.4386 69.6458 20.032 69.6458 19.5207C69.6458 18.8235 69.2013 18.3123 68.3124 17.9869L67.3299 17.6383C65.8095 17.1038 64.7217 16.4996 64.0668 15.8257C63.2948 15.0123 62.9088 14.0479 62.9088 12.9325C62.9088 11.5381 63.4352 10.3994 64.4878 9.51634C65.4001 8.79593 66.7217 8.43573 68.4528 8.43573C70.2773 8.43573 71.8914 8.97023 73.2949 10.0392Z" fill="#1B1B1B"/>
<path d="M86.4283 12.549H83.4809V24.0174H79.2001V12.549H77.5159V8.92375H79.2001V3.76471H83.4809V8.92375H86.4283V12.549Z" fill="#1B1B1B"/>
<path d="M101.745 19.1721L105.675 19.7996C105.511 20.2179 105.289 20.6362 105.009 21.0545C104.751 21.4495 104.342 21.9492 103.78 22.5534C103.219 23.1343 102.459 23.6108 101.5 23.9826C100.541 24.3312 99.4412 24.5054 98.2014 24.5054C95.8154 24.5054 93.8739 23.7967 92.3768 22.3791C90.7862 20.8918 89.9908 18.9281 89.9908 16.488C89.9908 14.0712 90.7628 12.0959 92.3066 10.5621C93.757 9.14452 95.6634 8.43573 98.026 8.43573C100.599 8.43573 102.576 9.26071 103.956 10.9107C105.172 12.3515 105.78 14.3268 105.78 16.8366V17.1852H94.4119C94.4119 18.2077 94.6575 19.0559 95.1488 19.7298C95.8505 20.6826 96.8681 21.159 98.2014 21.159C99.7921 21.159 100.973 20.4967 101.745 19.1721ZM94.5523 14.4662H101.745C101.582 13.4902 101.149 12.7465 100.447 12.2353C99.7687 11.7008 98.9968 11.4336 98.1313 11.4336C97.2891 11.4336 96.5172 11.7008 95.8155 12.2353C95.1371 12.7698 94.716 13.5134 94.5523 14.4662Z" fill="#1B1B1B"/>
<path d="M111.2 24.0174V8.92375H115.481V11.1895C115.996 10.2135 116.627 9.51634 117.376 9.09804C118.077 8.6565 118.92 8.43573 119.902 8.43573C120.463 8.43573 121.072 8.55192 121.727 8.78431L121.165 12.7582C120.627 12.3863 119.961 12.2004 119.165 12.2004C117.925 12.2004 116.978 12.6071 116.323 13.4205C115.762 14.1176 115.481 15.2331 115.481 16.7669V24.0174H111.2Z" fill="#1B1B1B"/>
<path d="M125.95 24.0174V8.92375H130.23V10.8758C131.4 9.24909 132.967 8.43573 134.932 8.43573C136.92 8.43573 138.418 9.05156 139.423 10.2832C140.219 11.2593 140.616 12.6768 140.616 14.5359V24.0174H136.336V15.7908C136.336 14.3733 136.067 13.3856 135.529 12.8279C135.037 12.3166 134.371 12.061 133.529 12.061C132.359 12.061 131.482 12.5025 130.897 13.3856C130.453 14.0828 130.23 15.0588 130.23 16.3137V24.0174H125.95Z" fill="#1B1B1B"/>
<path d="M146.798 8.92375H151.079V24.0174H146.798V8.92375ZM147.114 4.3573C146.623 3.84604 146.377 3.24183 146.377 2.54466C146.377 1.84749 146.623 1.2549 147.114 0.766883C147.629 0.255628 148.237 0 148.939 0C149.64 0 150.237 0.255628 150.728 0.766883C151.243 1.2549 151.5 1.84749 151.5 2.54466C151.5 3.24183 151.243 3.84604 150.728 4.3573C150.237 4.84531 149.64 5.08932 148.939 5.08932C148.237 5.08932 147.629 4.84531 147.114 4.3573Z" fill="#1B1B1B"/>
</svg>
