<svg width="81" height="26" viewBox="0 0 81 26" fill="none" xmlns="http://www.w3.org/2000/svg">
<path d="M34.9026 22.9414H38.9064L38.8911 22.8501L38.3126 22.8044C38.1147 22.8044 37.9625 22.7892 37.8407 22.7739C37.7189 22.7587 37.6428 22.7435 37.5819 22.7131C37.521 22.6978 37.4753 22.6826 37.4753 22.6674C37.4601 22.6522 37.4601 22.6217 37.4601 22.5913L39.3783 13.5637H40.7484C41.266 13.6245 41.6466 13.7616 41.8598 14.0051C42.0729 14.2487 42.2403 14.7511 42.3621 15.5123L42.3926 15.695H42.4535L42.6818 13.4266H35.1918L34.4915 15.695H34.5676L34.6894 15.4971C35.07 14.8729 35.4202 14.401 35.7246 14.0965C36.0291 13.792 36.4097 13.6245 36.8512 13.5637H38.404L36.5163 22.5456C36.4858 22.6674 36.227 22.7587 35.7246 22.7892L34.9482 22.8501L34.9026 22.9414ZM46.2658 23.1241C46.7377 23.1241 47.3467 22.3934 48.0926 20.9319L48.0013 20.8862L46.8595 22.6217L46.1288 22.5304L47.301 19.6074C47.8338 18.283 48.1079 17.5066 48.1079 17.2934C48.1079 17.0499 48.0013 16.8367 47.8034 16.6236C47.6055 16.4105 47.4228 16.3039 47.2401 16.3039C46.8747 16.3039 46.5398 16.4714 46.2201 16.8063C45.9157 17.1108 45.5046 17.6436 44.9718 18.42C44.439 19.2116 43.967 19.988 43.5712 20.7644L43.4799 20.734C43.967 19.5465 44.6978 17.2325 45.7025 13.8225L45.9918 12.8481L43.7235 13.1069L43.693 13.1983L44.9109 13.244C45.0175 13.244 45.0479 13.3657 44.987 13.5941L44.6673 14.7206C44.4542 15.4818 44.1649 16.4257 43.83 17.5522C43.4799 18.694 43.1754 19.6531 42.9318 20.4143L42.0641 22.911L42.8253 22.9871L43.3733 21.5408C43.9975 20.2012 44.6521 19.0746 45.3219 18.1612C45.9918 17.2478 46.4637 16.7911 46.7225 16.7911C46.89 16.7911 47.027 16.852 47.1488 16.9433C47.2706 17.0499 47.3315 17.1717 47.3315 17.3239C47.3315 17.4761 47.0574 18.2373 46.5398 19.6074C46.418 19.9424 46.2506 20.3534 46.0374 20.8558C45.8243 21.3581 45.6721 21.754 45.5655 22.0432C45.4437 22.3325 45.3981 22.4999 45.3981 22.5456C45.3981 22.6522 45.5046 22.7739 45.7178 22.911C45.9309 23.0632 46.1136 23.1241 46.2658 23.1241ZM50.3343 23.1241C51.1564 23.1241 51.9785 22.4086 52.8005 20.9623L52.694 20.9167C52.3286 21.5256 51.9937 21.9519 51.6892 22.1954C51.3847 22.4543 51.0346 22.576 50.6692 22.576C50.2734 22.576 49.9689 22.4086 49.7558 22.0737C49.5427 21.7387 49.4361 21.2973 49.4361 20.7492C49.4361 20.2773 49.5122 19.7749 49.6797 19.2268C50.9737 19.0289 51.9328 18.7701 52.557 18.4504C53.1659 18.146 53.4856 17.7349 53.4856 17.2478C53.4856 16.9737 53.3486 16.7454 53.0898 16.5627C52.8158 16.38 52.4961 16.2887 52.1155 16.2887C51.5674 16.2887 51.0194 16.5323 50.4713 16.989C49.9233 17.4609 49.4818 18.0698 49.1469 18.8006C48.7967 19.5313 48.6293 20.2773 48.6293 21.0232C48.6293 21.617 48.7815 22.1193 49.086 22.5151C49.3905 22.9262 49.8015 23.1241 50.3343 23.1241ZM49.771 19.0746L49.7406 19.0594C50.0451 18.1612 50.4257 17.4761 50.9128 16.989C51.3086 16.6236 51.6435 16.4257 51.948 16.4257C52.1764 16.4257 52.3591 16.5018 52.4961 16.654C52.6179 16.8063 52.694 16.989 52.694 17.2021C52.694 17.7197 52.4808 18.1155 52.0698 18.3895C51.6588 18.6636 50.8976 18.8919 49.771 19.0746ZM55.7532 22.9414H62.4212L63.4107 20.3077L63.3041 20.2925L63.1976 20.4904C62.7561 21.2516 62.3298 21.8301 61.934 22.2107C61.523 22.5913 60.9901 22.7892 60.3355 22.7892L58.0672 22.7283L59.9549 13.8225C59.9702 13.7007 60.229 13.6245 60.7466 13.5789L61.66 13.518L61.7209 13.4266H57.778L57.7932 13.518L58.1585 13.5637C58.5848 13.6245 58.8284 13.655 58.9045 13.6702C58.9806 13.7007 59.0111 13.7311 59.0111 13.7768L57.1538 22.5304C57.1233 22.6522 56.8645 22.7283 56.3622 22.7892L55.7989 22.8501L55.7532 22.9414ZM67.9069 23.1393C68.5006 23.1393 69.1705 22.4086 69.9012 20.9319L69.8099 20.8862L68.6985 22.6217L68.0135 22.5456L68.9269 19.6379L70.0687 16.3344L69.3075 16.2735L68.866 17.7349H68.8508C68.8508 16.8215 68.5615 16.3648 67.983 16.3648C67.5568 16.3648 67.1457 16.5779 66.7195 17.0042C66.0953 17.6284 65.5168 18.3895 64.9992 19.2877C64.4816 20.1859 64.2228 21.008 64.2228 21.754C64.2228 22.165 64.3293 22.4999 64.5729 22.7435C64.8013 22.9871 65.0905 23.1089 65.4255 23.1089C65.7908 23.1089 66.1562 22.8957 66.5368 22.439C66.9174 21.9975 67.4197 21.2364 68.0439 20.1707H68.0744C67.6481 21.2364 67.4502 21.891 67.4502 22.1346C67.4502 22.3934 67.4806 22.6217 67.572 22.8348C67.6633 23.048 67.7699 23.1393 67.9069 23.1393ZM65.8365 22.4847C65.6234 22.4847 65.4255 22.4086 65.2732 22.2259C65.121 22.0432 65.0449 21.7844 65.0449 21.419C65.0449 20.7644 65.2123 20.0032 65.5777 19.1355C65.9278 18.2678 66.3084 17.6284 66.7347 17.2021C67.0087 16.9281 67.2827 16.7911 67.5568 16.7911C67.8765 16.7911 68.1353 16.9433 68.3484 17.2173C68.5463 17.5066 68.6529 17.7958 68.6529 18.0851C68.6529 18.4504 68.5311 18.8767 68.2875 19.3639C67.2523 21.4495 66.4302 22.4847 65.8365 22.4847ZM72.0515 23.1241C72.5387 23.1241 73.0106 22.9566 73.4369 22.5913C73.8631 22.2259 74.0611 21.7996 74.0611 21.2973C74.0611 21.0385 73.9697 20.7644 73.8175 20.4752C73.6652 20.2012 73.3151 19.7901 72.767 19.2573C72.1277 18.6483 71.7927 18.1307 71.7927 17.7349C71.7775 17.3696 71.8841 17.0651 72.1277 16.8063C72.356 16.5475 72.6757 16.4105 73.0715 16.4105C73.4673 16.4105 73.8175 16.6084 74.1067 16.989C73.7718 17.0955 73.6043 17.2934 73.6043 17.5827C73.6043 17.7349 73.6348 17.8567 73.7261 17.9481C73.8175 18.0394 73.924 18.0851 74.0763 18.0851C74.2133 18.0851 74.3351 18.0394 74.4416 17.9176C74.5482 17.811 74.5939 17.6588 74.5939 17.4761C74.5787 17.1108 74.4416 16.8215 74.1828 16.6084C73.9088 16.3952 73.5435 16.2887 73.0715 16.2887C72.6148 16.2887 72.1733 16.4714 71.7775 16.8215C71.3665 17.1869 71.1686 17.5979 71.1838 18.0698C71.1838 18.3134 71.2447 18.5418 71.3665 18.7701C71.4883 19.0137 71.61 19.1964 71.7318 19.3334C71.8536 19.4856 72.0668 19.6835 72.3408 19.9576C72.3408 19.9728 72.4017 20.0337 72.5235 20.1555C72.6453 20.2773 72.7062 20.3534 72.7366 20.3838C72.767 20.4143 72.8279 20.4904 72.9193 20.597C73.0106 20.7035 73.0867 20.7797 73.1172 20.8405C73.1476 20.9014 73.1933 20.9928 73.2542 21.0841C73.3151 21.1755 73.3455 21.2668 73.376 21.3581C73.3912 21.4495 73.4064 21.5408 73.4064 21.6322C73.4064 21.9823 73.2999 22.302 73.0715 22.5913C72.8432 22.8805 72.5082 23.0175 72.0515 23.0175C71.5339 23.0175 71.0772 22.7892 70.6814 22.3172C70.8184 22.2716 70.9402 22.1954 71.0468 22.0737C71.1381 21.9671 71.199 21.8453 71.199 21.7083C71.199 21.5713 71.1533 21.4495 71.062 21.3581C70.9707 21.2668 70.8489 21.2059 70.7119 21.2059C70.5748 21.2059 70.4531 21.2668 70.3617 21.3886C70.2551 21.5104 70.2095 21.6626 70.2095 21.8453C70.2095 22.2411 70.3769 22.5456 70.7423 22.7739C71.0924 23.0175 71.5339 23.1241 72.0515 23.1241ZM75.8152 23.1241C76.2872 23.1241 76.8809 22.3934 77.6116 20.9319L77.5203 20.8862L76.4242 22.6217L75.6173 22.5304L77.3071 16.9433H78.6468L78.7686 16.5323L77.4441 16.517L78.0835 14.4466H77.3376L76.6982 16.517L75.6173 16.5323L75.4803 16.9281L76.5612 16.9433L74.8866 22.4999C74.8409 22.6217 74.9475 22.7435 75.1911 22.8957C75.4346 23.048 75.6478 23.1241 75.8152 23.1241ZM78.8794 23.1545C79.0621 23.1545 79.2144 23.0936 79.3362 22.9566C79.4579 22.8196 79.5341 22.6522 79.5341 22.4695C79.5341 22.302 79.4732 22.1498 79.3514 22.0128C79.2296 21.891 79.0774 21.8149 78.8947 21.8149C78.6968 21.8149 78.5293 21.891 78.3923 22.0128C78.2553 22.1498 78.1944 22.302 78.1944 22.4695C78.1944 22.6522 78.2553 22.8196 78.3923 22.9566C78.5141 23.0936 78.6815 23.1545 78.8794 23.1545Z" fill="#1B1B1B"/>
<path d="M3.94546 10H5.74692L7.05361 2.62923H11.367L11.6461 1.11955H1.2052L0.926104 2.62923H5.25215L3.94546 10ZM11.2997 10H13.1011L13.4183 8.22391V8.24928C13.7862 6.16872 14.8899 4.81128 16.26 4.81128C17.4906 4.81128 17.8712 5.54709 17.5414 7.46273L17.0847 10H18.8861L19.3809 7.24706C19.863 4.48143 19.1906 3.47921 17.4018 3.45384C15.4862 3.45384 14.3571 4.58293 13.7862 6.27021H13.6847L14.8519 1.11955H12.8728L11.2997 10ZM23.9499 10.203C25.5483 10.203 26.2968 10.0507 27.6035 9.58135L27.8573 8.13511C27.0834 8.43958 26.373 8.83286 24.8252 8.83286C23.1506 8.83286 22.3894 8.41421 22.3641 7.37392H28.2632L28.4535 6.33364C28.7326 4.6083 27.4132 3.45384 25.1424 3.45384C22.8461 3.45384 21.0827 4.79859 20.7275 6.82841C20.3723 8.85823 21.6536 10.203 23.9499 10.203ZM22.4782 6.49857C22.8081 5.29336 23.5693 4.83665 24.9013 4.83665C26.2715 4.83665 26.8804 5.2553 26.7282 6.39707L22.4782 6.49857ZM33.0616 10H34.8631L35.5355 6.19409H41.7137L41.9548 4.78591H35.7765L36.1571 2.62923H42.4495L42.716 1.11955H34.6347L33.0616 10ZM44.8528 2.5658C45.5506 2.5658 46.0326 2.23595 46.1595 1.5382C46.2737 0.853137 45.8931 0.523292 45.208 0.523292C44.5356 0.523292 44.0409 0.853137 43.9267 1.5382C43.7998 2.23595 44.1677 2.5658 44.8528 2.5658ZM42.6581 10H44.4595L45.5759 3.65682H43.7745L42.6581 10ZM46.2913 10H48.0928L48.4861 7.75452C48.8793 5.78813 50.0972 4.96352 52.7106 4.96352L52.9643 3.45384C50.592 3.45384 49.4883 4.18965 48.7905 6.27021H48.6637L49.3868 3.65682H47.4077L46.2913 10ZM55.8855 10.203C58.1183 10.203 59.7294 9.58135 59.9832 8.10973C60.4653 5.34411 54.5788 6.76498 54.8071 5.5344C54.8833 5.09038 55.5683 4.87471 57.0653 4.87471C58.0168 4.87471 59.1205 5.01426 59.9832 5.20456L60.2369 3.80906C59.1712 3.59339 57.8899 3.45384 57.1287 3.45384C54.8959 3.45384 53.2721 4.1389 53.0184 5.55978C52.5363 8.31271 58.4481 6.75229 58.2198 8.10973C58.1183 8.64256 57.4078 8.80748 55.8474 8.80748C54.731 8.80748 53.8176 8.66793 52.8281 8.26197L52.5743 9.70821C53.5766 10.0127 54.9086 10.203 55.8855 10.203ZM62.8355 10.1269C63.5206 10.1269 64.0407 10.0507 64.5989 9.87314L64.7638 8.92166C62.9116 9.02315 62.9497 8.84554 63.2161 7.33587L63.6348 4.96352H65.4616L65.7026 3.65682H63.8631L64.1803 1.88073L62.5945 2.13446L62.3154 3.65682H61.1609L60.9199 4.96352H61.8333L61.3512 7.71646C61.0341 9.5306 61.1863 10.1269 62.8355 10.1269Z" fill="#1B1B1B"/>
</svg>
