<svg xmlns="http://www.w3.org/2000/svg" width="19.188" height="13.34" viewBox="0 0 19.188 13.34">
  <defs>
    <style>
      .cls-1 {
        fill: #4c76ff;
        fill-rule: evenodd;
      }
    </style>
  </defs>
  <path id="Envelope" class="cls-1" d="M901.223,4465.42c0.33,0,.3-0.03.3,0.3v9.71c0,0.34.031,0.91-.3,0.91H885.63a1.24,1.24,0,0,1-.9-0.91v-9.71c0-.33.569-0.3,0.9-0.3h15.293m0.3-1.21H885.63c-0.993,0-2.1.51-2.1,1.51v9.71a2.36,2.36,0,0,0,2.1,2.12h15.593c0.993,0,1.5-1.11,1.5-2.12v-9.71a1.335,1.335,0,0,0-1.5-1.51h0Zm-8.1,9.15a0.631,0.631,0,0,1-.392-0.14l-9-7.28a0.617,0.617,0,0,1-.06-0.86,0.6,0.6,0,0,1,.846-0.06l8.6,6.93,8.6-6.93a0.6,0.6,0,0,1,.846.06,0.617,0.617,0,0,1-.06.86l-9,7.28A0.636,0.636,0,0,1,893.126,4473.36Z" transform="translate(-883.531 -4464.22)"/>
</svg>
