<svg id="Слой_1" data-name="Слой 1" xmlns="http://www.w3.org/2000/svg" viewBox="0 0 46.25 38.06"><defs><style>.cls-1,.cls-2{stroke:#282828;stroke-miterlimit:10;}.cls-1{stroke-width:1.23px;}</style></defs><title>brief</title><path class="cls-1" d="M64.76,55H21a0.61,0.61,0,0,1-.61-0.61V24.1A0.61,0.61,0,0,1,21,23.48h43.8a0.61,0.61,0,0,1,.61.61V54.39A0.61,0.61,0,0,1,64.76,55ZM21.58,53.77H64.15V24.71H21.58V53.77Z" transform="translate(-19.74 -17.55)"/><rect class="cls-2" x="26.76" y="21.95" width="18" height="1"/><rect class="cls-2" x="0.76" y="21.95" width="17" height="1"/><path class="cls-1" d="M48.8,24.31H36.93a0.61,0.61,0,0,1-.61-0.61V18.78a0.61,0.61,0,0,1,.61-0.61H48.8a0.61,0.61,0,0,1,.61.61v4.91A0.61,0.61,0,0,1,48.8,24.31ZM37.54,23.08H48.18V19.39H37.54v3.68Z" transform="translate(-19.74 -17.55)"/><path class="cls-2" d="M47.5,41.89a0.61,0.61,0,0,1-.61.61H37.11a0.61,0.61,0,0,1-.61-0.61V36.11a0.61,0.61,0,0,1,.61-0.61h9.77a0.61,0.61,0,0,1,.61.61v5.77Zm-10-.39h9v-5h-9v5Z" transform="translate(-19.74 -17.55)"/></svg>