<svg id="Слой_1" data-name="Слой 1" xmlns="http://www.w3.org/2000/svg" viewBox="0 0 154 154"><defs><style>.cls-1{fill:#fff;}</style></defs><title>clock</title><path class="cls-1" d="M184,226.51a77,77,0,1,1,77-77A77.09,77.09,0,0,1,184,226.51Zm0-150a73,73,0,1,0,73,73A73.08,73.08,0,0,0,184,76.51Z" transform="translate(-107 -72.51)"/><path class="cls-1" d="M184,151.51a2,2,0,0,1-2-2V95.44a2,2,0,0,1,4,0v54.07A2,2,0,0,1,184,151.51Z" transform="translate(-107 -72.51)"/><path class="cls-1" d="M217.93,183.14a2,2,0,0,1-1.36-.54L182.64,151a2,2,0,0,1,2.73-2.93l33.93,31.63A2,2,0,0,1,217.93,183.14Z" transform="translate(-107 -72.51)"/></svg>